<svg id="レイヤー_1" data-name="レイヤー 1" xmlns="http://www.w3.org/2000/svg" viewBox="0 0 184.71 55.75"><defs><style>.cls-1{fill:#0f1010;}</style></defs><path class="cls-1" d="M33.48,41.23C38.58,50.44,48,54,51.23,47.41c-3.26,1.85-10.6.79-17.75-6.18" transform="translate(0 -0.89)"/><path class="cls-1" d="M37.51,43.7c11.08,7.43,19.93,2.94,20-13.66-.15,7.57-8.18,19.4-20,13.66" transform="translate(0 -0.89)"/><path class="cls-1" d="M30.38,1.55c3.24,1.9,6,8.79,3.52,18.46,5.43-9,3.79-18.91-3.52-18.46" transform="translate(0 -0.89)"/><path class="cls-1" d="M34,15.28C34.92,2,26.61-3.45,12.21,4.81,18.84,1.15,33.1,2.19,34,15.28" transform="translate(0 -0.89)"/><path class="cls-1" d="M15.31,30.26C4.79,30.07-2.95,36.43,1.09,42.54c0-3.76,4.62-9.58,14.22-12.28" transform="translate(0 -0.89)"/><path class="cls-1" d="M11.16,32.51C-.81,38.39-1.36,48.3,13,56.64,6.52,52.72.29,39.86,11.16,32.51" transform="translate(0 -0.89)"/><path class="cls-1" d="M10.59,19.3c-4.86,3.23.06,5.1,4.08,6.21a12.92,12.92,0,0,1-4.08-6.21" transform="translate(0 -0.89)"/><path class="cls-1" d="M26.36,50.8c5.23,2.59,4.38-2.6,3.34-6.64a13.05,13.05,0,0,1-3.34,6.64" transform="translate(0 -0.89)"/><path class="cls-1" d="M45.75,21.39c-.37-5.82-4.44-2.5-7.41.43a12.83,12.83,0,0,1,7.41-.43" transform="translate(0 -0.89)"/><path class="cls-1" d="M14.13,29.51c3.66,0,7.46.52,10,2.21a11.94,11.94,0,0,1,3.56,3.4c3.5,4.74,2.06,12.93,6.6,17,2.07,1.87,6.33,1.77,10.66-.42-4.53-.73-8.4-3.5-11.5-9.08-1.78-3.2-3.24-6.33-3.08-9.76a11.6,11.6,0,0,1,1.18-4.81c3.29-6.8,10-7.58,11.42-14.18.57-2.73-1.63-6.37-5.7-9,1.64,4.29,1.17,9-2.11,14.51-1.88,3.13-4,6-6.91,7.54a12.18,12.18,0,0,1-4.6,1.37c-7.6.6-11.95-4.9-18.15-2.79-2.64.9-4.69,4.6-5,9.45,2.9-3.56,7.24-5.53,13.62-5.42" transform="translate(0 -0.89)"/><path class="cls-1" d="M46,22.38l-1.75-.24a18.62,18.62,0,0,1-.52,17.67,18.36,18.36,0,0,1-3.07,4l1.73.36A19.84,19.84,0,0,0,45,40.56a20.11,20.11,0,0,0,1-18.18" transform="translate(0 -0.89)"/><path class="cls-1" d="M27.57,10.37a20.13,20.13,0,0,0-16.24,8.24L12,20.26a18.67,18.67,0,0,1,20.54-7.72L32,10.86a20.07,20.07,0,0,0-4.41-.49" transform="translate(0 -0.89)"/><path class="cls-1" d="M11.43,39.81a18.59,18.59,0,0,1-1.9-4.65L8.35,36.49a20.33,20.33,0,0,0,1.79,4.07A20.08,20.08,0,0,0,25.39,50.5l1.09-1.4a18.61,18.61,0,0,1-15-9.29" transform="translate(0 -0.89)"/><polygon class="cls-1" points="147.36 53.21 130.92 12.67 120.59 12.67 104.14 53.21 114.74 53.21 125.75 21.41 136.76 53.21 147.36 53.21"/><rect class="cls-1" x="121.4" y="39.38" width="8.71" height="8.18"/><path class="cls-1" d="M97.67,29.4c.11,2.38.49,5,1.62,6.62l1.3-1.16a6.73,6.73,0,0,1-1-2.36,17.71,17.71,0,0,1-.41-3.3ZM94.75,36c.91-1.11,1.68-3.87,1.68-6.62L95,29.24a17.57,17.57,0,0,1-.41,3.37,5.67,5.67,0,0,1-1,2.3ZM102,13.56V54.11H92.8V36.87H73.65V54.11H64.42V13.56h9.23V28.81H92.8V13.56Z" transform="translate(0 -0.89)"/><path class="cls-1" d="M156.34,29.24h-1.46V36a3.87,3.87,0,0,0,1.86-.4A4.29,4.29,0,0,0,159,32.29l-1.39-.74c-.1.69-.27,2-1.23,2.47Zm-2.34.27h-1.46V31.3a8.2,8.2,0,0,1-.18,2,3.11,3.11,0,0,1-.81,1.66l1.15,1.28c1.27-1.29,1.3-3.81,1.3-5Zm30.71,16.32v8.28H150.79V13.56h8.54V45.83Z" transform="translate(0 -0.89)"/><path class="cls-1" d="M70.49,3.89v.57a7.44,7.44,0,0,1-1.74,1.09v.06h2.87v.67H68.75V7.5a.58.58,0,0,1-.56.57H66.85l-.13-.73h1.1c.19,0,.19-.09.19-.22V6.28H65.15V5.61H68V5.07h.3a3.09,3.09,0,0,0,1-.53h-3V3.89ZM66.22,2.73a5.49,5.49,0,0,0-.41-.84l.66-.24a4.07,4.07,0,0,1,.52,1l-.16.06H68.2a6.81,6.81,0,0,0-.47-.88l.68-.26a5.93,5.93,0,0,1,.52,1.07l-.23.07h1.11a8,8,0,0,0,.45-1.12l.78.24a5.63,5.63,0,0,1-.45.88h.87V4.3h-.69V3.38H66V4.3h-.69V2.73Z" transform="translate(0 -0.89)"/><path class="cls-1" d="M72.14,5.59a6.1,6.1,0,0,0,.91-2h-.86V2.91h1V1.64h.65V2.91h.72v.66h-.72V4a5.36,5.36,0,0,0,.95,1.27l-.36.66A4,4,0,0,1,73.79,5v3.1h-.65V4.88a6.18,6.18,0,0,1-.74,1.64ZM78,4.77a5.16,5.16,0,0,1-1,1.74,4.43,4.43,0,0,0,1.76.86l-.34.68A5.27,5.27,0,0,1,76.5,7a5.91,5.91,0,0,1-1.87,1l-.36-.63A5.29,5.29,0,0,0,76,6.52a5,5,0,0,1-.89-1.76l.63-.18A4.33,4.33,0,0,0,76.53,6a4.59,4.59,0,0,0,.78-1.47Zm-1.8-1.35a4.32,4.32,0,0,1-1.29,1.3l-.48-.5a3.52,3.52,0,0,0,1.2-1.11Zm0-1.78h.7V2.3h1.71V3H74.56V2.3h1.65Zm1.31,1.45a4.47,4.47,0,0,0,1.24,1.07l-.45.57a4.53,4.53,0,0,1-1.37-1.31Z" transform="translate(0 -0.89)"/><path class="cls-1" d="M81,5.67A12.61,12.61,0,0,1,79.61,8l-.46-.69A8,8,0,0,0,80.4,5.23ZM79.53,3.51a8,8,0,0,1,1.2.65l-.43.64a5.73,5.73,0,0,0-1.12-.67Zm.32-1.87A9,9,0,0,1,81,2.3l-.45.64a7.27,7.27,0,0,0-1.11-.71Zm3.31,3.43a11,11,0,0,1-.94,2.07c.78,0,1.09,0,2.19-.15a7.92,7.92,0,0,0-.71-1l.62-.35a8.23,8.23,0,0,1,1.34,2.18L85,8.09l-.24-.53c-1,.16-2.93.27-3.69.29l-.1-.67.52,0a8.54,8.54,0,0,0,.88-2.09H81V4.41h2V3.26H81.29V2.6H83v-1h.69v1H85.4v.66H83.69V4.41h2v.66Z" transform="translate(0 -0.89)"/><path class="cls-1" d="M89.1,1.65h.8v.84a5.17,5.17,0,0,0,2.89,4.82l-.47.7A5.65,5.65,0,0,1,89.5,4.38,5.6,5.6,0,0,1,86.69,8l-.51-.68A5,5,0,0,0,88.5,5.06a6.11,6.11,0,0,0,.6-2.54Z" transform="translate(0 -0.89)"/><path class="cls-1" d="M96.52,2h5V8h-.75V7.66H97.27V8h-.75Zm4.23.7H97.27V4.42h3.48Zm0,2.47H97.27V7h3.48Z" transform="translate(0 -0.89)"/><path class="cls-1" d="M102.85,2.77h2.86V1.63h.7V2.77h2.86v.69h-2.54a6.38,6.38,0,0,0,2.63,2.75L109,7a7.77,7.77,0,0,1-2.55-2.92V6.22h1.41v.69h-1.41V8.05h-.7V6.91h-1.37V6.22h1.37V4.05A7.77,7.77,0,0,1,103.18,7l-.41-.68a6.82,6.82,0,0,0,2.62-2.83h-2.54Z" transform="translate(0 -0.89)"/><path class="cls-1" d="M112.8,7.38a4.11,4.11,0,0,0,1.6-1.17,4.86,4.86,0,0,1-.61-1.61c-.08.13-.11.19-.22.35L113,4.43a2.49,2.49,0,0,0,.23-.37h-1a6.85,6.85,0,0,1-.52.5H113v.57a5.92,5.92,0,0,1-.87.7V6l1.29-.17v.6c-.29.05-.56.11-1.29.21v.93a.48.48,0,0,1-.47.5h-1l-.13-.65h.78c.09,0,.18,0,.18-.16V6.68c-.59.07-1.08.11-1.51.14l-.06-.66c.47,0,.92,0,1.57-.13V5.55h.19a2.42,2.42,0,0,0,.47-.42H111a9.75,9.75,0,0,1-.87.53l-.31-.61a6.75,6.75,0,0,0,1.53-1h-1.45V3.44h1.25V2.8h-1.08V2.19h1.08V1.64h.64v.55h.79v.5a6.06,6.06,0,0,0,.46-.85l.6.27a5.88,5.88,0,0,1-.83,1.33h.45V4A7.34,7.34,0,0,0,114,1.61l.68.06c0,.25-.07.55-.16,1h1.75v.71H116a6.49,6.49,0,0,1-.75,2.84,8.26,8.26,0,0,0,1.2,1.16L116,8a5.67,5.67,0,0,1-1.22-1.21A5.78,5.78,0,0,1,113.25,8Zm-1-4.58v.64h.2a6.11,6.11,0,0,0,.52-.64Zm2.52.57-.1.28a5,5,0,0,0,.54,1.94,6.07,6.07,0,0,0,.49-2.22Z" transform="translate(0 -0.89)"/><path class="cls-1" d="M122.53,4.23a3.81,3.81,0,0,0-.64-.52c-3.31.25-3.47.27-4.71.27l-.05-.64,1.36,0c.13-.18.25-.38.36-.57h-1.91V2.12h2.88V1.63h.69v.49h2.85v.63h-1.71a8.11,8.11,0,0,1,1.44,1Zm0,0V7.36a.63.63,0,0,1-.68.7h-1.16l-.15-.7h1.09c.17,0,.2,0,.2-.17V6.82h-3.36V8.06h-.7V4.28Zm-4.06,1h3.36V4.84h-3.36Zm0,1h3.36V5.81h-3.36Zm2.84-3.51h-1.63c-.19.29-.21.32-.39.56l1.85-.07a2.75,2.75,0,0,0-.37-.21Z" transform="translate(0 -0.89)"/><path class="cls-1" d="M125.08,6.82a4.47,4.47,0,0,1-.75,1.24l-.48-.44a3.4,3.4,0,0,0,.63-1.06Zm-.92-5h2.47v4.6h-2.47Zm.66,1.32H126V2.46h-1.16Zm0,1.3H126V3.74h-1.16Zm0,1.33H126v-.7h-1.16Zm1.42.82a6.69,6.69,0,0,1,.61,1.14l-.65.22a4.52,4.52,0,0,0-.57-1.15Zm.46-.36a7.5,7.5,0,0,0,2.17-2.65h-2v-.7H129V1.63h.72V2.87h.73v.7h-.73V7.11c0,.67,0,.94-.77.94h-1.08l-.13-.71h.85c.41,0,.41-.12.41-.41V4.54a7.25,7.25,0,0,1-1.84,2.35Z" transform="translate(0 -0.89)"/><path class="cls-1" d="M131.26,1.87h5.9V8.06h-.7V7.78H132v.28h-.7Zm.7,5.25h4.5V2.53H132Zm.34-3.59h2.51V2.77h.68v.76h.68v.62h-.68V6.26a.62.62,0,0,1-.69.6h-.89l-.1-.69h.81c.17,0,.19,0,.19-.16V4.15H132.3Zm1,2.54a6.86,6.86,0,0,0-.82-1.37l.56-.34a6.26,6.26,0,0,1,.87,1.33Z" transform="translate(0 -0.89)"/></svg>