<svg id="レイヤー_1" data-name="レイヤー 1" xmlns="http://www.w3.org/2000/svg" viewBox="0 0 267.23 55.75"><defs><style>.cls-1{fill:#231815;}.cls-2{fill:#0b579f;}</style></defs><path class="cls-1" d="M205.37,47H193.74V40.86h11.63ZM185,30.61a27.15,27.15,0,0,0,3.51-2.43,41.11,41.11,0,0,1,4,4.94,35.9,35.9,0,0,1-10.58,4.59L184,44.2a46.59,46.59,0,0,0,5.19-2.38v12.5h4.53V53h11.63v1.29h4.56V35H199a37.39,37.39,0,0,0,9-12.09V17.43h-11a20.78,20.78,0,0,0,1.17-2.51l-5.37-.62a21.18,21.18,0,0,1-10.27,10.45Zm17.17-7.7a33.31,33.31,0,0,1-5.37,6.82,48.47,48.47,0,0,0-4.63-5.15,15.71,15.71,0,0,0,1.38-1.67Z" transform="translate(-2.5 -1.39)"/><path class="cls-1" d="M211.38,25.93h11.8v5.81h-9.25v22.5h4.65v-2h14v2h4.72V31.74H228V25.93h12V19.45H228v-5h-4.8v5h-11.8ZM232.6,46h-14V38h14Z" transform="translate(-2.5 -1.39)"/><path class="cls-1" d="M264.12,22h-17V19.9h17Zm5.2,17a39.44,39.44,0,0,0-3.41-6.3h3.82V27.88H247.08v-1.6h21.56V15.11H242.46V33.93c0,8.67-1,12.38-2.54,16.48l4.18,4.4c1-2.5,3-7.25,3-20.88v-1.3h3.56a18.93,18.93,0,0,1-1,2.59h-2.08l.31,5.14h1.42l6-.26v2.11H248v4.4h7.4V49h-8.7v5h23.08V49h-9.79V46.61h8.67v-4.4h-8.67V39.8c2.57-.22,3.19-.3,4.08-.43.5,1.07.69,1.5,1.15,2.67Zm-9-6a22.3,22.3,0,0,1,1.36,2,69.86,69.86,0,0,1-7.09.26c.68-1.51.8-1.86,1.09-2.59h5.13Z" transform="translate(-2.5 -1.39)"/><polygon class="cls-1" points="144.82 53.05 128.71 12.53 118.59 12.53 102.47 53.05 112.86 53.05 123.65 21.26 134.44 53.05 144.82 53.05"/><rect class="cls-1" x="119.38" y="39.22" width="8.53" height="8.18"/><path class="cls-1" d="M98.63,29.74c.11,2.38.48,5,1.58,6.62l1.28-1.16a6.8,6.8,0,0,1-1-2.36,16.1,16.1,0,0,1-.41-3.3Zm-2.86,6.61c.89-1.1,1.65-3.86,1.64-6.61L96,29.59a17.31,17.31,0,0,1-.4,3.36,5.51,5.51,0,0,1-1,2.3Zm7.14-22.43V54.43h-9V37.21H76V54.43H67V13.92h9V29.16H93.86V13.92Z" transform="translate(-2.5 -1.39)"/><path class="cls-1" d="M156.12,29.59h-1.43v6.75a3.75,3.75,0,0,0,1.83-.4,4.29,4.29,0,0,0,2.16-3.31l-1.35-.74c-.1.7-.27,2-1.21,2.47Zm-2.29.26H152.4v1.8a8.62,8.62,0,0,1-.18,2,3.13,3.13,0,0,1-.79,1.66l1.13,1.27c1.24-1.28,1.27-3.8,1.27-5ZM183,46.16v8.27H150.69V13.92h8.36V46.16Z" transform="translate(-2.5 -1.39)"/><path class="cls-1" d="M73,3.85v.57a7.44,7.44,0,0,1-1.74,1.09v.06h2.87v.67H71.25V7.46a.57.57,0,0,1-.56.56H69.35l-.13-.72h1.1c.19,0,.19-.09.19-.22V6.24H67.65V5.57h2.86V5h.31a3,3,0,0,0,1-.54h-3V3.85ZM68.73,2.69a8.39,8.39,0,0,0-.41-.84L69,1.6a4.5,4.5,0,0,1,.51,1l-.16.06H70.7a4.66,4.66,0,0,0-.47-.88l.68-.26a5.33,5.33,0,0,1,.52,1.07l-.22.07h1.1a7.3,7.3,0,0,0,.45-1.12l.79.23a7.42,7.42,0,0,1-.45.89H74V4.26h-.69V3.34H68.53v.92h-.69V2.69Z" transform="translate(-2.5 -1.39)"/><path class="cls-1" d="M74.64,5.55a6.15,6.15,0,0,0,.91-2h-.86V2.87h1V1.6h.65V2.87H77v.65h-.73v.4a5.58,5.58,0,0,0,.95,1.27l-.35.66a4.27,4.27,0,0,1-.6-.94V8h-.65V4.84a5.61,5.61,0,0,1-.74,1.64Zm5.84-.82a5.56,5.56,0,0,1-1,1.74,4.39,4.39,0,0,0,1.75.86L80.94,8A5.21,5.21,0,0,1,79,7a5.7,5.7,0,0,1-1.87,1l-.36-.63a5.16,5.16,0,0,0,1.75-.91,4.84,4.84,0,0,1-.89-1.75l.64-.18A4.25,4.25,0,0,0,79,6a4.39,4.39,0,0,0,.79-1.47Zm-1.8-1.35a4.35,4.35,0,0,1-1.3,1.3l-.48-.5a3.33,3.33,0,0,0,1.2-1.11Zm0-1.78h.69v.66h1.72v.65H77.06V2.26h1.66ZM80,3.05a5,5,0,0,0,1.24,1.07l-.45.57a4.65,4.65,0,0,1-1.36-1.31Z" transform="translate(-2.5 -1.39)"/><path class="cls-1" d="M83.48,5.63A12.61,12.61,0,0,1,82.12,8l-.47-.69A8,8,0,0,0,82.9,5.19ZM82,3.47a8.38,8.38,0,0,1,1.19.65l-.42.63a6.59,6.59,0,0,0-1.12-.66Zm.32-1.87a7.38,7.38,0,0,1,1.16.66l-.45.64A7.56,7.56,0,0,0,82,2.19ZM85.66,5a10.65,10.65,0,0,1-.94,2.07c.78,0,1.09,0,2.2-.15a10.43,10.43,0,0,0-.71-1.06l.62-.34a8.65,8.65,0,0,1,1.34,2.17l-.71.33c-.09-.2-.15-.35-.24-.53-1,.16-2.94.27-3.7.29l-.1-.67.52,0A8.77,8.77,0,0,0,84.83,5H83.52V4.37h2V3.22H83.8V2.56h1.7v-1h.69v1h1.72v.66H86.19V4.37h2V5Z" transform="translate(-2.5 -1.39)"/><path class="cls-1" d="M91.6,1.61h.8v.84a5.19,5.19,0,0,0,2.89,4.82l-.47.7A5.65,5.65,0,0,1,92,4.34,5.57,5.57,0,0,1,89.19,8l-.5-.68A5,5,0,0,0,91,5a6.11,6.11,0,0,0,.6-2.54Z" transform="translate(-2.5 -1.39)"/><path class="cls-1" d="M99,1.91h5V8h-.76V7.61H99.77V8H99Zm4.23.7H99.77V4.38h3.48Zm0,2.46H99.77V6.91h3.48Z" transform="translate(-2.5 -1.39)"/><path class="cls-1" d="M105.36,2.73h2.85V1.58h.71V2.73h2.86v.69h-2.55a6.44,6.44,0,0,0,2.63,2.75l-.4.76A7.68,7.68,0,0,1,108.92,4V6.18h1.4v.68h-1.4V8h-.71V6.86h-1.36V6.18h1.36V4a7.6,7.6,0,0,1-2.53,2.92l-.41-.68a6.91,6.91,0,0,0,2.63-2.83h-2.54Z" transform="translate(-2.5 -1.39)"/><path class="cls-1" d="M115.31,7.33a4,4,0,0,0,1.59-1.16,5.11,5.11,0,0,1-.61-1.61c-.08.13-.11.19-.22.35l-.55-.52a2.58,2.58,0,0,0,.24-.37h-1a6.85,6.85,0,0,1-.52.5h1.2v.57a5.44,5.44,0,0,1-.87.7v.12c.14,0,1.24-.15,1.29-.17v.61c-.28.05-.56.11-1.29.21v.93a.47.47,0,0,1-.47.5h-1L113,7.33h.78c.09,0,.18,0,.18-.15V6.64c-.59.07-1.07.11-1.51.14l-.06-.66c.47,0,.92,0,1.57-.13V5.51h.19a2.42,2.42,0,0,0,.47-.42h-1.07a8.5,8.5,0,0,1-.87.53l-.3-.61a6.76,6.76,0,0,0,1.52-1h-1.45V3.4h1.26V2.76h-1.09V2.15h1.09V1.6h.63v.55h.79v.5a5.17,5.17,0,0,0,.46-.85l.61.27a6.29,6.29,0,0,1-.83,1.33h.45V4a7.31,7.31,0,0,0,.71-2.38l.68.06c0,.25-.07.55-.16,1h1.76v.71h-.34a6.48,6.48,0,0,1-.74,2.84,8.73,8.73,0,0,0,1.19,1.16l-.4.66a5.91,5.91,0,0,1-1.22-1.21A5.94,5.94,0,0,1,115.76,8Zm-1-4.57V3.4h.21a7.8,7.8,0,0,0,.51-.64Zm2.52.57c0,.16-.07.2-.1.28a5,5,0,0,0,.55,1.94,6.28,6.28,0,0,0,.49-2.22Z" transform="translate(-2.5 -1.39)"/><path class="cls-1" d="M125,4.19a3.81,3.81,0,0,0-.64-.52c-3.3.25-3.46.26-4.71.27l-.05-.64,1.36,0c.13-.18.25-.38.36-.57h-1.91V2.08h2.88V1.59H123v.49h2.86v.63h-1.72a7.59,7.59,0,0,1,1.44,1Zm0,0V7.32a.62.62,0,0,1-.68.7H123.2l-.16-.7h1.09c.18,0,.21,0,.21-.17V6.77H121V8h-.71V4.24Zm-4,1h3.36V4.8H121Zm0,1h3.36V5.77H121Zm2.84-3.51h-1.64c-.19.29-.21.32-.38.56l1.85-.07L123.28,3Z" transform="translate(-2.5 -1.39)"/><path class="cls-1" d="M127.58,6.78A4.47,4.47,0,0,1,126.83,8l-.47-.45A3.4,3.4,0,0,0,127,6.52Zm-.92-5h2.48V6.36h-2.48Zm.67,1.32h1.15V2.42h-1.15Zm0,1.3h1.15V3.7h-1.15Zm0,1.33h1.15V5h-1.15Zm1.42.82a5.7,5.7,0,0,1,.6,1.14l-.64.22a5,5,0,0,0-.58-1.15Zm.45-.37a7.38,7.38,0,0,0,2.18-2.65h-2V2.83h2.1V1.59h.72V2.83h.73v.69h-.73V7.07c0,.67,0,.94-.77.94h-1.08l-.13-.71H131c.41,0,.41-.12.41-.41V4.5a7.25,7.25,0,0,1-1.84,2.35Z" transform="translate(-2.5 -1.39)"/><path class="cls-1" d="M133.76,1.83h5.91V8H139V7.74h-4.51V8h-.7Zm.7,5.25H139V2.49h-4.51Zm.34-3.6h2.52V2.73H138v.75h.67V4.1H138V6.22a.62.62,0,0,1-.7.6h-.88l-.11-.69h.82c.16,0,.19,0,.19-.16V4.1H134.8Zm1,2.55A6.86,6.86,0,0,0,135,4.66l.57-.34a6.49,6.49,0,0,1,.86,1.33Z" transform="translate(-2.5 -1.39)"/><path class="cls-2" d="M36,41.73c5.1,9.2,14.47,12.72,17.75,6.17-3.27,1.86-10.61.79-17.75-6.17" transform="translate(-2.5 -1.39)"/><path class="cls-2" d="M40,44.19c11.07,7.43,19.92,3,20-13.65-.15,7.57-8.17,19.39-20,13.65" transform="translate(-2.5 -1.39)"/><path class="cls-2" d="M32.88,2c3.24,1.9,6,8.79,3.53,18.46,5.42-9,3.78-18.9-3.53-18.46" transform="translate(-2.5 -1.39)"/><path class="cls-2" d="M36.53,15.78C37.42,2.47,29.12-2.95,14.71,5.31,21.35,1.65,35.6,2.68,36.53,15.78" transform="translate(-2.5 -1.39)"/><path class="cls-2" d="M17.81,30.75C7.29,30.56-.44,36.92,3.59,43c0-3.76,4.62-9.59,14.22-12.29" transform="translate(-2.5 -1.39)"/><path class="cls-2" d="M13.66,33c-12,5.88-12.51,15.78,1.84,24.12C9,53.22,2.79,40.36,13.66,33" transform="translate(-2.5 -1.39)"/><path class="cls-2" d="M13.09,19.8c-4.86,3.23.06,5.1,4.08,6.2a12.83,12.83,0,0,1-4.08-6.2" transform="translate(-2.5 -1.39)"/><path class="cls-2" d="M28.86,51.29c5.23,2.6,4.39-2.6,3.34-6.63a12.87,12.87,0,0,1-3.34,6.63" transform="translate(-2.5 -1.39)"/><path class="cls-2" d="M48.25,21.89c-.36-5.83-4.44-2.5-7.41.43a12.85,12.85,0,0,1,7.41-.43" transform="translate(-2.5 -1.39)"/><path class="cls-2" d="M16.63,30c3.66.06,7.46.52,10,2.22a11.79,11.79,0,0,1,3.55,3.4c3.5,4.74,2.06,12.93,6.6,17,2.07,1.86,6.33,1.76,10.67-.42-4.53-.73-8.41-3.51-11.51-9.08-1.78-3.2-3.24-6.34-3.08-9.77A11.88,11.88,0,0,1,34,28.56c3.29-6.8,10-7.58,11.43-14.19.57-2.72-1.64-6.36-5.7-9,1.63,4.28,1.17,9-2.11,14.5-1.88,3.14-4,6-6.92,7.55a12.33,12.33,0,0,1-4.6,1.36C18.53,29.37,14.18,23.87,8,26c-2.63.9-4.69,4.6-5,9.45,2.9-3.56,7.24-5.53,13.62-5.43" transform="translate(-2.5 -1.39)"/><path class="cls-2" d="M48.48,22.88l-1.76-.24a18.65,18.65,0,0,1-3.59,21.64l1.74.36a20.52,20.52,0,0,0,2.63-3.58,20.11,20.11,0,0,0,1-18.18" transform="translate(-2.5 -1.39)"/><path class="cls-2" d="M30.07,10.87a20.1,20.1,0,0,0-16.23,8.24l.67,1.64A18.61,18.61,0,0,1,35.05,13l-.56-1.69a20.71,20.71,0,0,0-4.42-.48" transform="translate(-2.5 -1.39)"/><path class="cls-2" d="M13.93,40.31A18.75,18.75,0,0,1,12,35.66L10.85,37a20.41,20.41,0,0,0,1.79,4.08A20.11,20.11,0,0,0,27.89,51L29,49.59a18.64,18.64,0,0,1-15-9.28" transform="translate(-2.5 -1.39)"/></svg>