<svg id="レイヤー_1" data-name="レイヤー 1" xmlns="http://www.w3.org/2000/svg" viewBox="0 0 267.39 55.75"><defs><style>.cls-1{fill:#231815;}.cls-2{fill:#0b579f;}</style></defs><path class="cls-1" d="M190.47,48c10.44-4.08,13.85-10.42,15.19-17.55H191V23.91h15.19V14.46h6.32v9.45h15.78v6.54h-15c2.37,9.94,7.32,14.75,15.82,17.81l-3.4,6.45a26.77,26.77,0,0,1-16-17.08c-2.78,7.27-7.45,13-16.07,17Z" transform="translate(-1.9 -1.8)"/><path class="cls-1" d="M231.73,54.76h5.39V21.26h2.56a55.14,55.14,0,0,1-2.44,9.53,11.52,11.52,0,0,1,2.68,8c0,1.62-.56,2.12-1.44,2.12H237.4l.93,6h1.39c1.8,0,5,0,5-6.71a20.14,20.14,0,0,0-2.6-10.13c.27-1,1.55-5.14,1.76-6,.31-1.27.47-2.12.64-2.89V15.62H231.73Zm37.57-6.25a24.45,24.45,0,0,1-6.47-3.91A34.12,34.12,0,0,0,267.34,32v-5.7H251.59V21.47H268.5V15.62H246V30c0,13.26-2.15,17.29-4.83,20.78l5,4.21a33.9,33.9,0,0,0,2.4-4.51l2.28,4.3a32.11,32.11,0,0,0,8-5.36,31.78,31.78,0,0,0,7.27,5.36ZM251.55,34.1a30.58,30.58,0,0,0,3.72,10.67,21.39,21.39,0,0,1-6,4c2.08-5.83,2.21-13.56,2.24-16.71h10.16a18.39,18.39,0,0,1-2.6,8.08,24.2,24.2,0,0,1-2.6-7.15Z" transform="translate(-1.9 -1.8)"/><polygon class="cls-1" points="147.4 53.09 130.97 12.51 120.65 12.51 104.22 53.09 114.8 53.09 125.81 21.26 136.81 53.09 147.4 53.09"/><rect class="cls-1" x="121.46" y="39.24" width="8.7" height="8.19"/><path class="cls-1" d="M99.65,30.16c.11,2.39.49,5.05,1.62,6.63l1.3-1.16a6.53,6.53,0,0,1-1-2.37,16.87,16.87,0,0,1-.41-3.3Zm-2.92,6.62c.91-1.11,1.68-3.87,1.68-6.62L97,30a17.57,17.57,0,0,1-.41,3.36,5.59,5.59,0,0,1-1,2.31ZM104,14.31V54.89H94.78V37.64H75.64V54.89H66.42V14.31h9.22V29.57H94.78V14.31Z" transform="translate(-1.9 -1.8)"/><path class="cls-1" d="M158.28,30h-1.45v6.76a4,4,0,0,0,1.86-.4,4.28,4.28,0,0,0,2.2-3.32l-1.38-.74c-.1.7-.27,2-1.23,2.47Zm-2.33.26h-1.47v1.8a8.08,8.08,0,0,1-.18,2,3.24,3.24,0,0,1-.8,1.67L154.65,37c1.26-1.29,1.3-3.81,1.3-5ZM186.63,46.6v8.29H152.74V14.31h8.53V46.6Z" transform="translate(-1.9 -1.8)"/><path class="cls-1" d="M72.39,4.65v.57a7.23,7.23,0,0,1-1.74,1.09v.06h2.87V7H70.65V8.26a.58.58,0,0,1-.56.57H68.76l-.13-.73h1.09c.2,0,.2-.09.2-.22V7H67.05V6.37h2.87V5.83h.3a3.09,3.09,0,0,0,1-.53h-3V4.65ZM68.13,3.49a8.39,8.39,0,0,0-.41-.84l.66-.24a4.05,4.05,0,0,1,.51,1l-.15.06H70.1a6.36,6.36,0,0,0-.46-.88l.67-.26a5.33,5.33,0,0,1,.52,1.07l-.22.07h1.1a5.92,5.92,0,0,0,.45-1.12l.79.24a8.11,8.11,0,0,1-.45.88h.86V5.06h-.69V4.14H67.93v.92h-.69V3.49Z" transform="translate(-1.9 -1.8)"/><path class="cls-1" d="M74,6.35a6.32,6.32,0,0,0,.92-2H74.1V3.67h1V2.4h.64V3.67h.73v.66h-.73v.39a5.65,5.65,0,0,0,1,1.27l-.35.66a4.05,4.05,0,0,1-.6-.94v3.1h-.64V5.64a5.89,5.89,0,0,1-.75,1.64Zm5.84-.82a5.56,5.56,0,0,1-1,1.74,4.32,4.32,0,0,0,1.75.86l-.33.68a5.29,5.29,0,0,1-1.94-1,5.7,5.7,0,0,1-1.87,1l-.36-.63a5.33,5.33,0,0,0,1.76-.9A4.84,4.84,0,0,1,77,5.52l.64-.18a4.25,4.25,0,0,0,.76,1.44,4.39,4.39,0,0,0,.79-1.47Zm-1.8-1.35a4.32,4.32,0,0,1-1.29,1.3L76.3,5a3.42,3.42,0,0,0,1.2-1.1Zm0-1.78h.69v.66h1.72v.65H76.47V3.06h1.65Zm1.3,1.45a4.66,4.66,0,0,0,1.25,1.07l-.46.57a4.65,4.65,0,0,1-1.36-1.31Z" transform="translate(-1.9 -1.8)"/><path class="cls-1" d="M82.88,6.43a12.61,12.61,0,0,1-1.36,2.33l-.47-.69A7.74,7.74,0,0,0,82.3,6ZM81.44,4.27a9.52,9.52,0,0,1,1.19.65l-.42.64a6,6,0,0,0-1.12-.67Zm.32-1.87a9,9,0,0,1,1.17.66l-.46.64A7.56,7.56,0,0,0,81.37,3Zm3.3,3.43a10.39,10.39,0,0,1-.94,2.07c.79,0,1.09,0,2.2-.15a9,9,0,0,0-.71-1l.62-.35a8.51,8.51,0,0,1,1.34,2.18l-.71.32-.24-.53c-1,.17-2.94.27-3.69.3l-.11-.68.52,0a8.6,8.6,0,0,0,.89-2.09h-1.3V5.17h2V4H83.2V3.36h1.71v-1h.69v1h1.71V4H85.6V5.17h2v.66Z" transform="translate(-1.9 -1.8)"/><path class="cls-1" d="M91,2.41h.8v.84a5.21,5.21,0,0,0,2.89,4.83l-.47.69A5.65,5.65,0,0,1,91.4,5.14a5.57,5.57,0,0,1-2.81,3.63l-.5-.68A4.89,4.89,0,0,0,90.4,5.82,6.11,6.11,0,0,0,91,3.28Z" transform="translate(-1.9 -1.8)"/><path class="cls-1" d="M98.42,2.71h5V8.77h-.76V8.42H99.17v.35h-.75Zm4.23.7H99.17V5.18h3.48Zm0,2.47H99.17V7.71h3.48Z" transform="translate(-1.9 -1.8)"/><path class="cls-1" d="M104.76,3.53h2.85V2.39h.71V3.53h2.86v.69h-2.55A6.44,6.44,0,0,0,111.26,7l-.4.76a7.76,7.76,0,0,1-2.54-2.92V7h1.4v.69h-1.4V8.81h-.71V7.67h-1.36V7h1.36V4.81a7.6,7.6,0,0,1-2.53,2.92l-.41-.68a6.91,6.91,0,0,0,2.63-2.83h-2.54Z" transform="translate(-1.9 -1.8)"/><path class="cls-1" d="M114.71,8.14A4.1,4.1,0,0,0,116.3,7a5.11,5.11,0,0,1-.61-1.61c-.08.13-.11.19-.22.35l-.55-.52a2.12,2.12,0,0,0,.24-.37h-1a6.18,6.18,0,0,1-.51.5h1.19v.57a5.44,5.44,0,0,1-.87.7v.13l1.29-.17v.6c-.28,0-.56.11-1.29.21v.93a.47.47,0,0,1-.47.5h-1l-.13-.65h.78c.09,0,.18,0,.18-.16V7.44c-.59.07-1.07.11-1.51.14l0-.66c.46,0,.91,0,1.56-.13V6.31h.19a2.16,2.16,0,0,0,.47-.42h-1.07a8.5,8.5,0,0,1-.87.53l-.3-.61a7,7,0,0,0,1.53-1h-1.46V4.2h1.26V3.56H112V3h1.09V2.4h.63V3h.79v.5A4.51,4.51,0,0,0,115,2.6l.61.27a5.88,5.88,0,0,1-.83,1.33h.45v.55a7.31,7.31,0,0,0,.71-2.38l.68.07c0,.24-.07.54-.16,1h1.76v.71h-.34A6.48,6.48,0,0,1,117.12,7a7.78,7.78,0,0,0,1.2,1.16l-.41.66a5.91,5.91,0,0,1-1.22-1.21,5.77,5.77,0,0,1-1.53,1.21Zm-1-4.58V4.2h.21a6.35,6.35,0,0,0,.51-.64Zm2.52.57c0,.16-.07.2-.1.28a5.16,5.16,0,0,0,.55,1.94,6.28,6.28,0,0,0,.49-2.22Z" transform="translate(-1.9 -1.8)"/><path class="cls-1" d="M124.43,5a3.81,3.81,0,0,0-.64-.52c-3.3.25-3.46.27-4.7.27L119,4.1l1.36,0c.13-.18.25-.38.36-.57h-1.91V2.88h2.88V2.39h.69v.49h2.86v.63h-1.72a8.11,8.11,0,0,1,1.44,1Zm0,0V8.12a.62.62,0,0,1-.68.7H122.6l-.16-.7h1.09c.18,0,.21,0,.21-.17V7.58h-3.36V8.82h-.71V5Zm-4.05,1h3.36V5.6h-3.36Zm0,1h3.36V6.57h-3.36Zm2.84-3.51h-1.64c-.19.29-.21.32-.38.56L123.05,4l-.37-.21Z" transform="translate(-1.9 -1.8)"/><path class="cls-1" d="M127,7.58a4.38,4.38,0,0,1-.74,1.24l-.48-.44a3.61,3.61,0,0,0,.63-1.06Zm-.92-5h2.48v4.6h-2.48Zm.67,1.33h1.15V3.22h-1.15Zm0,1.29h1.15V4.5h-1.15Zm0,1.33h1.15v-.7h-1.15Zm1.42.82a6.41,6.41,0,0,1,.61,1.15l-.65.21a4.76,4.76,0,0,0-.58-1.15Zm.46-.36a7.61,7.61,0,0,0,2.17-2.65h-2v-.7h2.09V2.39h.72V3.63h.73v.7h-.73V7.87c0,.67,0,.94-.76.94h-1.08l-.14-.71h.85c.41,0,.41-.12.41-.41V5.3A7.22,7.22,0,0,1,129,7.65Z" transform="translate(-1.9 -1.8)"/><path class="cls-1" d="M133.16,2.63h5.91V8.82h-.7V8.54h-4.5v.28h-.71Zm.71,5.25h4.5V3.29h-4.5Zm.34-3.59h2.51V3.53h.68v.76h.67v.62h-.67V7a.62.62,0,0,1-.69.6h-.89l-.11-.68h.82c.16,0,.19-.06.19-.17V4.91h-2.51Zm1,2.54a6.86,6.86,0,0,0-.82-1.37l.57-.34a7.27,7.27,0,0,1,.87,1.33Z" transform="translate(-1.9 -1.8)"/><path class="cls-2" d="M35.39,42.14c5.1,9.2,14.47,12.72,17.75,6.17-3.27,1.86-10.61.79-17.75-6.17" transform="translate(-1.9 -1.8)"/><path class="cls-2" d="M39.42,44.6C50.5,52,59.35,47.55,59.4,31c-.16,7.57-8.18,19.39-20,13.65" transform="translate(-1.9 -1.8)"/><path class="cls-2" d="M32.28,2.45c3.24,1.9,6,8.79,3.53,18.46,5.42-9,3.78-18.9-3.53-18.46" transform="translate(-1.9 -1.8)"/><path class="cls-2" d="M35.93,16.19C36.82,2.88,28.52-2.55,14.11,5.72,20.75,2.06,35,3.09,35.93,16.19" transform="translate(-1.9 -1.8)"/><path class="cls-2" d="M17.21,31.16C6.69,31-1,37.33,3,43.44c0-3.76,4.62-9.58,14.22-12.28" transform="translate(-1.9 -1.8)"/><path class="cls-2" d="M13.07,33.41C1.09,39.3.55,49.2,14.9,57.54,8.42,53.63,2.19,40.77,13.07,33.41" transform="translate(-1.9 -1.8)"/><path class="cls-2" d="M12.49,20.21c-4.86,3.23.06,5.09,4.08,6.2a12.88,12.88,0,0,1-4.08-6.2" transform="translate(-1.9 -1.8)"/><path class="cls-2" d="M28.27,51.7c5.22,2.59,4.38-2.6,3.33-6.63a12.91,12.91,0,0,1-3.33,6.63" transform="translate(-1.9 -1.8)"/><path class="cls-2" d="M47.65,22.3c-.36-5.83-4.44-2.5-7.41.42a12.86,12.86,0,0,1,7.41-.42" transform="translate(-1.9 -1.8)"/><path class="cls-2" d="M16,30.41c3.66.06,7.46.52,10,2.22A11.75,11.75,0,0,1,29.57,36c3.5,4.74,2.06,12.93,6.6,17,2.07,1.86,6.33,1.76,10.67-.42-4.53-.74-8.41-3.51-11.51-9.09-1.78-3.19-3.24-6.33-3.08-9.76A11.84,11.84,0,0,1,33.43,29c3.29-6.8,10-7.59,11.43-14.19.57-2.72-1.64-6.36-5.7-9,1.63,4.29,1.17,9-2.11,14.51-1.88,3.14-4,6-6.91,7.55a12.44,12.44,0,0,1-4.6,1.36c-7.6.61-12-4.89-18.16-2.79-2.63.9-4.69,4.61-5,9.45,2.9-3.55,7.24-5.52,13.62-5.42" transform="translate(-1.9 -1.8)"/><path class="cls-2" d="M47.88,23.28,46.12,23a18.65,18.65,0,0,1-3.59,21.65l1.74.36a20.18,20.18,0,0,0,3.61-21.77" transform="translate(-1.9 -1.8)"/><path class="cls-2" d="M29.47,11.27a20.13,20.13,0,0,0-16.23,8.24l.67,1.65a18.62,18.62,0,0,1,15.56-8.39,19.06,19.06,0,0,1,5,.67l-.56-1.68a20.09,20.09,0,0,0-4.42-.49" transform="translate(-1.9 -1.8)"/><path class="cls-2" d="M13.34,40.72a18.78,18.78,0,0,1-1.91-4.65l-1.17,1.32A19.81,19.81,0,0,0,12,41.47,20.13,20.13,0,0,0,27.29,51.4l1.1-1.4a18.61,18.61,0,0,1-15-9.28" transform="translate(-1.9 -1.8)"/></svg>