<svg id="レイヤー_1" data-name="レイヤー 1" xmlns="http://www.w3.org/2000/svg" viewBox="0 0 267.13 55.75"><defs><style>.cls-1{fill:#0b579f;}.cls-2{fill:#231815;}</style></defs><path class="cls-1" d="M35,41.56c5.1,9.2,14.48,12.72,17.76,6.17-3.27,1.86-10.61.79-17.76-6.17" transform="translate(-1.55 -1.22)"/><path class="cls-1" d="M39.06,44C50.14,51.45,59,47,59,30.37c-.15,7.57-8.17,19.39-20,13.65" transform="translate(-1.55 -1.22)"/><path class="cls-1" d="M31.93,1.87c3.24,1.9,6,8.79,3.53,18.46,5.42-9,3.78-18.9-3.53-18.46" transform="translate(-1.55 -1.22)"/><path class="cls-1" d="M35.58,15.61C36.47,2.3,28.16-3.13,13.76,5.14c6.63-3.66,20.89-2.63,21.82,10.47" transform="translate(-1.55 -1.22)"/><path class="cls-1" d="M16.86,30.58C6.34,30.39-1.4,36.75,2.64,42.86c0-3.76,4.62-9.58,14.22-12.28" transform="translate(-1.55 -1.22)"/><path class="cls-1" d="M12.71,32.83C.74,38.72.2,48.62,14.55,57,8.07,53.05,1.84,40.19,12.71,32.83" transform="translate(-1.55 -1.22)"/><path class="cls-1" d="M12.14,19.63c-4.86,3.23.06,5.09,4.08,6.2a12.88,12.88,0,0,1-4.08-6.2" transform="translate(-1.55 -1.22)"/><path class="cls-1" d="M27.91,51.12c5.23,2.59,4.38-2.6,3.34-6.63a13,13,0,0,1-3.34,6.63" transform="translate(-1.55 -1.22)"/><path class="cls-1" d="M47.3,21.72c-.37-5.83-4.44-2.5-7.41.42a12.85,12.85,0,0,1,7.41-.42" transform="translate(-1.55 -1.22)"/><path class="cls-1" d="M15.68,29.83c3.66.06,7.46.52,10,2.22a11.78,11.78,0,0,1,3.56,3.39c3.5,4.74,2.06,12.93,6.6,17,2.07,1.86,6.33,1.76,10.67-.42C42,51.3,38.08,48.53,35,43c-1.78-3.19-3.24-6.33-3.08-9.76a11.72,11.72,0,0,1,1.18-4.8c3.29-6.8,10-7.59,11.42-14.19.57-2.72-1.63-6.36-5.7-9,1.64,4.29,1.17,9-2.11,14.51-1.88,3.14-4,6-6.91,7.55a12.33,12.33,0,0,1-4.6,1.36C17.58,29.2,13.23,23.7,7,25.8c-2.64.9-4.69,4.61-5,9.45C5,31.7,9.3,29.73,15.68,29.83" transform="translate(-1.55 -1.22)"/><path class="cls-1" d="M47.52,22.7l-1.75-.24a18.65,18.65,0,0,1-3.59,21.65l1.73.36a20.57,20.57,0,0,0,2.64-3.58,20.13,20.13,0,0,0,1-18.19" transform="translate(-1.55 -1.22)"/><path class="cls-1" d="M29.12,10.69a20.1,20.1,0,0,0-16.23,8.24l.66,1.65a18.62,18.62,0,0,1,15.57-8.39,19.06,19.06,0,0,1,5,.67l-.57-1.68a20.07,20.07,0,0,0-4.41-.49" transform="translate(-1.55 -1.22)"/><path class="cls-1" d="M13,40.14a18.75,18.75,0,0,1-1.9-4.65L9.9,36.81a20.41,20.41,0,0,0,1.79,4.08,20.09,20.09,0,0,0,15.25,9.93L28,49.42a18.64,18.64,0,0,1-15-9.28" transform="translate(-1.55 -1.22)"/><polygon class="cls-2" points="147.36 53.21 130.92 12.67 120.59 12.67 104.14 53.21 114.74 53.21 125.75 21.41 136.76 53.21 147.36 53.21"/><rect class="cls-2" x="121.4" y="39.38" width="8.71" height="8.18"/><path class="cls-2" d="M99.22,29.72c.11,2.38.49,5,1.62,6.63l1.3-1.17a6.63,6.63,0,0,1-1-2.36,17.71,17.71,0,0,1-.41-3.3ZM96.3,36.34c.91-1.11,1.68-3.87,1.68-6.62l-1.45-.15a17.57,17.57,0,0,1-.41,3.36,5.72,5.72,0,0,1-1,2.31Zm7.28-22.45V54.43H94.35V37.2H75.2V54.43H66V13.89H75.2V29.13H94.35V13.89Z" transform="translate(-1.55 -1.22)"/><path class="cls-2" d="M157.89,29.57h-1.46v6.76a4,4,0,0,0,1.87-.4,4.32,4.32,0,0,0,2.21-3.32l-1.39-.74c-.1.7-.27,2-1.23,2.47Zm-2.34.26h-1.46v1.8a8.08,8.08,0,0,1-.18,2,3.15,3.15,0,0,1-.81,1.67l1.15,1.27c1.27-1.29,1.3-3.81,1.3-5Zm30.71,16.32v8.28H152.34V13.89h8.54V46.15Z" transform="translate(-1.55 -1.22)"/><path class="cls-2" d="M220,36.49h-7.79v-2H220Zm0-6h-7.79v-2H220Zm-21.32,4h7.6v2h-7.6ZM190.6,22.43h15.65v1.65H193V40.87h8.67A20.58,20.58,0,0,1,196.09,45a51.18,51.18,0,0,1-6.28,2.68L193.24,54a35.36,35.36,0,0,0,13-10V54.29h5.93V43.84A32.37,32.37,0,0,0,225,54l3.52-6.41a28,28,0,0,1-11.83-6.67h8.86V24.08H212.18V22.43h15.69V16.86H212.18v-3h-5.93v3H190.6Zm8.05,6.07h7.6v2h-7.6Z" transform="translate(-1.55 -1.22)"/><path class="cls-2" d="M268.68,48.08A26.71,26.71,0,0,1,260,40l-5.14,3.32a35.27,35.27,0,0,0,9.52,10.2Zm-30.56-7.94a31,31,0,0,1-7.51,8.5l3.95,5a33.6,33.6,0,0,0,8.54-10.28Zm8.1-23.36H231v5.94h37.45V16.78H252.47V13.92h-6.25Zm-11.78,8V39.72h12v6.84c0,1.06-.71,1.11-1.1,1.11h-4.59L242,54.33h7c2.61,0,3.44-2.12,3.44-4.2V39.72h12.46V24.81Zm24.2,9.43H240.57v-4h18.07Z" transform="translate(-1.55 -1.22)"/><path class="cls-2" d="M72,4.22v.56a7.47,7.47,0,0,1-1.74,1.1v0h2.87V6.6H70.3V7.82a.57.57,0,0,1-.56.57H68.4l-.13-.72h1.1c.19,0,.19-.1.19-.22V6.6H66.7V5.93h2.86V5.4h.3a3.24,3.24,0,0,0,1-.54h-3V4.22ZM67.77,3.06a5.05,5.05,0,0,0-.41-.84L68,2a4.07,4.07,0,0,1,.52,1l-.16.07h1.37a4.66,4.66,0,0,0-.47-.88L70,1.92A5.51,5.51,0,0,1,70.48,3l-.23.08h1.11a8.7,8.7,0,0,0,.45-1.12l.78.23a5.72,5.72,0,0,1-.45.89H73V4.62h-.69V3.7H67.58v.92h-.7V3.06Z" transform="translate(-1.55 -1.22)"/><path class="cls-2" d="M73.69,5.92a6.24,6.24,0,0,0,.91-2h-.86V3.23h1V2h.65V3.23h.72v.66h-.72v.4a5.82,5.82,0,0,0,1,1.27l-.36.66a4.63,4.63,0,0,1-.59-.94v3.1h-.65V5.21A6.49,6.49,0,0,1,74,6.85Zm5.83-.83a5.16,5.16,0,0,1-1,1.74,4.29,4.29,0,0,0,1.76.86L80,8.38a5.6,5.6,0,0,1-1.93-1,6,6,0,0,1-1.87,1l-.36-.64a5.29,5.29,0,0,0,1.75-.9,4.84,4.84,0,0,1-.89-1.75l.63-.19a4.24,4.24,0,0,0,.77,1.44,4.48,4.48,0,0,0,.78-1.47Zm-1.8-1.34A4.29,4.29,0,0,1,76.43,5L76,4.55a3.52,3.52,0,0,0,1.2-1.11Zm0-1.79h.7v.67h1.71v.65H76.11V2.63h1.65Zm1.31,1.45a4.47,4.47,0,0,0,1.24,1.07l-.45.57a4.47,4.47,0,0,1-1.37-1.3Z" transform="translate(-1.55 -1.22)"/><path class="cls-2" d="M82.52,6a11.58,11.58,0,0,1-1.36,2.33l-.46-.68A8.24,8.24,0,0,0,82,5.56ZM81.08,3.84a8.07,8.07,0,0,1,1.2.64l-.43.64a5.24,5.24,0,0,0-1.12-.66ZM81.4,2a8,8,0,0,1,1.17.67l-.45.64A7.92,7.92,0,0,0,81,2.55Zm3.31,3.43a11,11,0,0,1-.94,2.07c.78,0,1.09,0,2.19-.14a9.63,9.63,0,0,0-.7-1.06l.61-.35a8.23,8.23,0,0,1,1.34,2.18l-.71.33c-.08-.21-.15-.35-.24-.54-1,.17-2.93.27-3.69.3l-.1-.68H83a9.26,9.26,0,0,0,.89-2.1H82.57V4.74h2V3.59H82.84V2.93h1.71V2h.69v1H87v.66H85.24V4.74h2v.65Z" transform="translate(-1.55 -1.22)"/><path class="cls-2" d="M90.65,2h.8v.84a5.18,5.18,0,0,0,2.89,4.82l-.47.7A5.67,5.67,0,0,1,91.05,4.7a5.64,5.64,0,0,1-2.81,3.64l-.51-.69a4.94,4.94,0,0,0,2.32-2.26,6.11,6.11,0,0,0,.6-2.55Z" transform="translate(-1.55 -1.22)"/><path class="cls-2" d="M98.07,2.27h5V8.34h-.75V8H98.82v.36h-.75ZM102.3,3H98.82V4.74h3.48Zm0,2.46H98.82V7.28h3.48Z" transform="translate(-1.55 -1.22)"/><path class="cls-2" d="M104.4,3.09h2.86V2h.7V3.09h2.86v.7h-2.54a6.3,6.3,0,0,0,2.63,2.74l-.4.77A7.82,7.82,0,0,1,108,4.37V6.55h1.41v.68H108V8.37h-.7V7.23h-1.37V6.55h1.37V4.37a7.79,7.79,0,0,1-2.53,2.93l-.41-.69A6.89,6.89,0,0,0,107,3.79H104.4Z" transform="translate(-1.55 -1.22)"/><path class="cls-2" d="M114.36,7.7A4.23,4.23,0,0,0,116,6.54a4.94,4.94,0,0,1-.61-1.61l-.22.35-.55-.52a3.87,3.87,0,0,0,.24-.37h-1c-.11.11-.24.25-.52.49h1.2v.57a5.32,5.32,0,0,1-.87.7v.13L115,6.11v.6c-.29.06-.56.11-1.29.21v.93a.48.48,0,0,1-.47.51h-1L112,7.7h.78c.09,0,.18,0,.18-.16V7c-.59.07-1.08.11-1.51.15l-.06-.67A15,15,0,0,0,113,6.35V5.88h.19a2.83,2.83,0,0,0,.47-.43h-1.07a9,9,0,0,1-.87.54l-.31-.61a7.14,7.14,0,0,0,1.53-1h-1.45V3.77h1.25V3.13h-1.08V2.51h1.08V2h.64v.55h.79V3a6.73,6.73,0,0,0,.46-.86l.6.27a6.1,6.1,0,0,1-.83,1.34h.45v.54a7.2,7.2,0,0,0,.72-2.38l.68.07c0,.24-.07.54-.16,1h1.75v.71h-.33a6.58,6.58,0,0,1-.74,2.84A7.71,7.71,0,0,0,118,7.69l-.4.67a5.55,5.55,0,0,1-1.22-1.22,5.81,5.81,0,0,1-1.53,1.22Zm-1-4.57v.64h.2c.13-.15.29-.33.52-.64Zm2.52.56-.1.29a4.93,4.93,0,0,0,.54,1.93,6,6,0,0,0,.49-2.22Z" transform="translate(-1.55 -1.22)"/><path class="cls-2" d="M124.08,4.55a5.18,5.18,0,0,0-.64-.52c-3.31.26-3.47.27-4.71.28l0-.65,1.36,0a5.5,5.5,0,0,0,.36-.57h-1.91V2.44h2.88V2h.69v.49h2.85v.63H123.2a8.71,8.71,0,0,1,1.44,1Zm0,.06V7.69a.62.62,0,0,1-.68.69h-1.16l-.15-.69h1.09c.18,0,.2,0,.2-.17V7.14H120V8.38h-.7V4.61ZM120,5.6h3.36V5.16H120Zm0,1h3.36V6.14H120Zm2.84-3.52h-1.63a5.93,5.93,0,0,1-.39.56l1.85-.07-.37-.21Z" transform="translate(-1.55 -1.22)"/><path class="cls-2" d="M126.63,7.14a4.47,4.47,0,0,1-.75,1.24l-.48-.44A3.4,3.4,0,0,0,126,6.88Zm-.92-5h2.47v4.6h-2.47Zm.66,1.33h1.16V2.78h-1.16Zm0,1.3h1.16V4.07h-1.16Zm0,1.32h1.16v-.7h-1.16Zm1.42.82a6.41,6.41,0,0,1,.61,1.15l-.65.22a4.74,4.74,0,0,0-.57-1.16Zm.46-.36a7.5,7.5,0,0,0,2.17-2.65h-2v-.7h2.1V2h.72V3.19H132v.7h-.73V7.43c0,.67-.05,1-.77,1h-1.08l-.13-.71h.85c.41,0,.41-.13.41-.41V4.87a7.36,7.36,0,0,1-1.84,2.35Z" transform="translate(-1.55 -1.22)"/><path class="cls-2" d="M132.81,2.2h5.9V8.38H138V8.1h-4.5v.28h-.7Zm.7,5.24H138V2.86h-4.5Zm.34-3.59h2.52V3.09H137v.76h.68v.62H137V6.59a.61.61,0,0,1-.69.59h-.89l-.1-.68h.81c.17,0,.2-.06.2-.17V4.47h-2.52Zm1,2.55A6.89,6.89,0,0,0,134.06,5l.56-.34A6.26,6.26,0,0,1,135.49,6Z" transform="translate(-1.55 -1.22)"/></svg>